<?xml version="1.0" encoding="utf-8"?>
<!-- Generator: Adobe Illustrator 24.1.2, SVG Export Plug-In . SVG Version: 6.00 Build 0)  -->
<svg version="1.1" id="Layer_1" xmlns="http://www.w3.org/2000/svg" xmlns:xlink="http://www.w3.org/1999/xlink" x="0px" y="0px"
	 viewBox="0 0 1000 1000" style="enable-background:new 0 0 1000 1000;" xml:space="preserve">
<style type="text/css">
<!-- Farben -->
	.st1{fill:0x00000000}
	.st2{fill:#FFFFFF;}
</style>
  <!-- Background 
<rect class="st1" width="1000" height="1000"/>
-->
<g>
	<g> <!-- PVIsion Text-->
		<path class="st2" d="M257.05,698.83h-20.19V577.9h47.87c60.4,0,58.09,90.01-0.15,90.01h-19.91l-3.54-20.55h24
			c33.43,0,32.58-49.04-1.33-49.04c-25.6,0-26.88,0-26.88,0L257.05,698.83z"/>
		<polygon class="st2" points="346.33,577.9 391.52,698.83 401.42,672.76 365.52,577.9 		"/>
		<polygon class="st2" points="416.9,577.9 395.5,637.74 404.78,662.55 437.01,577.9 		"/>
		<rect x="453.15" y="611.89" class="st2" width="14.85" height="86.94"/>
		<circle class="st2" cx="460.58" cy="598.63" r="7.42"/>
		<rect x="558.53" y="611.89" class="st2" width="14.85" height="86.94"/>
		<circle class="st2" cx="565.96" cy="598.63" r="7.42"/>
		<path class="st2" d="M541.61,628.68c0-5.67-5.15-16.79-28.24-16.79c-23.09,0-28.9,12.56-28.9,24.97
			c0,28.1,42.75,22.03,42.75,38.13c0,13.85-27.84,11.61-27.84,2.37l-14.25,4.09c0,8.84,9.63,17.38,28.5,17.38
			c18.87,0,28.9-9.73,28.9-23.84c0-29.95-43.14-22.17-43.14-39.58c0-12.8,27.97-12.53,27.97-2.37L541.61,628.68z"/>
		<path class="st2" d="M633.32,611.84c-24.04,0-43.52,19.49-43.52,43.52c0,24.04,19.49,43.53,43.52,43.53
			c24.04,0,43.53-19.49,43.53-43.53C676.85,631.32,657.36,611.84,633.32,611.84z M633.32,683.94c-15.78,0-28.57-12.79-28.57-28.58
			c0-15.78,12.79-28.58,28.57-28.58c15.79,0,28.58,12.8,28.58,28.58C661.9,671.14,649.11,683.94,633.32,683.94z"/>
		<path class="st2" d="M763.15,646.84v51.98h-14.29V647.5c0-11.44-9.28-20.72-20.72-20.72c-11.45,0-20.72,9.28-20.72,20.72v51.33
			h-14.29v-51.98c0-19.34,15.67-35.01,35.01-35.01C747.47,611.83,763.15,627.51,763.15,646.84z"/>
	</g>
  <!-- Solar Panels -->
	<g>
		<g>
			<path class="st2" d="M446.54,489.53l-55.64-0.45c-5.71-9.17-10.12-18.95-13.2-29.09l47.53,0.39L446.54,489.53z"/>
			<polygon class="st2" points="483.27,453.38 465.2,431.62 420.32,430.72 420.16,430.71 438.41,453.73 438.44,453.76 
				483.89,454.13 			"/>
			<polygon class="st2" points="583.5,433.9 540.58,433.04 539.69,433.02 556.38,448.52 556.4,448.54 562.78,454.8 563.14,454.8 
				607.57,455.17 			"/>
			<path class="st2" d="M404.5,431.97l-31.96-0.65c0.44,7.37,1.54,14.71,3.31,21.91l44.46,0.38L404.5,431.97z"/>
			<path class="st2" d="M480.54,536.12l-36.95-0.31c-8.75-4.09-17.15-9.27-25.02-15.58c-8.5-6.81-15.84-14.51-22.03-22.86
				l56.06,0.48L480.54,536.12z"/>
			<path class="st2" d="M599.7,490.8h-0.21l-29.79-29.21l43.73,0.36C610.19,471.95,605.63,481.66,599.7,490.8z"/>
			<polygon class="st2" points="607.57,455.17 563.14,454.8 556.4,448.54 556.38,448.52 539.69,433.02 540.58,433.04 583.5,433.9 
							"/>
			<polygon class="st2" points="547.57,454.66 501.17,454.28 483.46,433.41 483.23,433.15 526.52,434.02 			"/>
			<polygon class="st2" points="483.27,453.38 438.41,453.73 420.16,430.71 420.32,430.72 465.2,431.62 			"/>
			<path class="st2" d="M419.84,453.2l-44,0.04c-1.77-7.2-2.87-14.54-3.31-21.91l31.96,0.65L419.84,453.2z"/>
			<line class="st2" x1="420.3" y1="453.61" x2="375.84" y2="453.23"/>
			<line class="st2" x1="513.89" y1="490.09" x2="513.87" y2="490.08"/>
			<polygon class="st2" points="584.29,490.66 530.84,490.22 506.51,461.05 554.5,461.45 			"/>
			<path class="st2" d="M592.27,501.12c-8.68,10.83-18.83,19.82-29.91,26.9l-24.59-29.48l55.02,0.46l0.65,0.63
				C593.06,500.13,592.66,500.63,592.27,501.12z"/>
			<line class="st2" x1="473.27" y1="498.01" x2="473.26" y2="498"/>
			<path class="st2" d="M550.97,534.56c-1.47,0.73-2.94,1.44-4.43,2.1l-0.27-0.01l-0.01,0.01l-42.88-0.37l-30.12-38.29l47.55,0.4
				l30.08,36.06L550.97,534.56z"/>
			<line class="st2" x1="420.3" y1="453.61" x2="404.5" y2="431.97"/>
			<polygon class="st2" points="483.23,433.15 483.46,433.41 500.85,454.28 			"/>
			<polygon class="st2" points="513.88,490.08 466.71,489.69 443.77,460.52 489.54,460.91 			"/>
			<polygon class="st2" points="468.32,435.46 483.27,453.38 483.89,454.13 			"/>
		</g>

      <!-- Drone Top-->
		<path class="st2" d="M763.15,387.07l-0.65,8.48l-45.81-3.51l-1.65,21.51h0.01l-1.2,15.69h-0.01l-15.69-1.2l-78.48-6.01
			c0.2,9.47-0.67,18.97-2.64,28.33l-29.75-26.31l-57.46-1.25l-15.56-0.34l-141.57-3.07c0.22-5.34,0.79-10.68,1.71-15.97l-79.63-7.49
			l-15.66-1.47h-0.01l1.47-15.67l0.01,0.01l2.02-21.48l-45.74-4.31l0.79-8.46l105.19,9.9l-0.79,8.47l-43.78-4.12l-2.02,21.48
			l81.87,7.7c4.36-14.03,11.3-27.52,20.94-39.74c42.23-53.62,119.92-62.83,173.54-20.6c25.68,20.22,41.16,48.57,45.69,78.51
			l81.06,6.22l1.65-21.51l-43.85-3.36l0.65-8.48L763.15,387.07z"/>
	</g>
</g>
<g>
	<g>

	
	</g>
</g>
</svg>
